<svg width="24" height="24" version="1.1" xmlns="http://www.w3.org/2000/svg"><g fill="#FFF" fill-rule="nonzero"><path d="M11 10c-.552285 0-1 .447715-1 1v9c0 .552285.447715 1 1 1h9c.552285 0 1-.447715 1-1v-9c0-.552285-.447715-1-1-1h-9zm0-2h9c1.656854 0 3 1.343146 3 3v9c0 1.656854-1.343146 3-3 3h-9c-1.656854 0-3-1.343146-3-3v-9c0-1.656854 1.343146-3 3-3z"/><path d="M5 14c.552285 0 1 .447715 1 1s-.447715 1-1 1H4c-1.656854 0-3-1.343146-3-3V4c0-1.656854 1.343146-3 3-3h9c1.656854 0 3 1.343146 3 3v1c0 .552285-.447715 1-1 1s-1-.447715-1-1V4c0-.552285-.447715-1-1-1H4c-.552285 0-1 .447715-1 1v9c0 .552285.447715 1 1 1h1z"/></g></svg>